name rise49.5252peak65.1548fall88.8305.mot
datacolumns 19
datarows 11
range 21.77657600000000 21.79324900000000
endheader
time	ground_force1_vx	ground_force1_vy	ground_force1_vz	ground_force1_px	ground_force1_py	ground_force1_pz	ground_force2_vx	ground_force2_vy	ground_force2_vz	ground_force2_px	ground_force2_py	ground_force2_pz	ground_torque1_x	ground_torque1_y	ground_torque1_z	ground_torque2_x	ground_torque2_y	ground_torque2_z	
21.77657600000000	-38.42143000000000	784.23542699999996	51.34544600000000	0.17248600000000	0.00000000000000	0.10330400000000	-10.21156500000000	26.47041400000000	4.57156400000000	0.37324300000000	0.00000000000000	-0.06491600000000	0.00000000000000	24.42708200000000	0.00000000000000	0.00000000000000	2.36422400000000	0.00000000000000	
21.77824600000000	-38.80932000000000	781.78020400000003	51.12439100000000	0.17161300000000	0.00000000000000	0.10330000000000	-11.92407700000000	32.51500500000000	5.40623700000000	0.37195000000000	0.00000000000000	-0.06567800000000	0.00000000000000	24.30826600000000	0.00000000000000	0.00000000000000	2.79819400000000	0.00000000000000	
21.77991000000000	-39.21236300000000	779.24194899999998	50.88368400000000	0.17072900000000	0.00000000000000	0.10329400000000	-13.52447500000000	38.79601900000000	6.21086000000000	0.37098400000000	0.00000000000000	-0.06636200000000	0.00000000000000	24.18788100000000	0.00000000000000	0.00000000000000	3.22087600000000	0.00000000000000	
21.78158000000000	-39.63061400000000	776.61954200000002	50.62325400000000	0.16983700000000	0.00000000000000	0.10328600000000	-14.95491400000000	45.19578500000000	6.95984700000000	0.37031700000000	0.00000000000000	-0.06697800000000	0.00000000000000	24.06613900000000	0.00000000000000	0.00000000000000	3.62058800000000	0.00000000000000	
21.78324600000000	-40.06407600000000	773.91178700000000	50.34306000000000	0.16893900000000	0.00000000000000	0.10327600000000	-16.16805600000000	51.60904500000000	7.63154100000000	0.36992600000000	0.00000000000000	-0.06753300000000	0.00000000000000	23.94324300000000	0.00000000000000	0.00000000000000	3.98741700000000	0.00000000000000	
21.78491400000000	-40.51270000000000	771.11741900000004	50.04308700000000	0.16803700000000	0.00000000000000	0.10326300000000	-17.12962800000000	57.94978900000000	8.20938900000000	0.36979000000000	0.00000000000000	-0.06803400000000	0.00000000000000	23.81939600000000	0.00000000000000	0.00000000000000	4.31373000000000	0.00000000000000	
21.78658100000000	-40.97638100000000	768.23509799999999	49.72334700000000	0.16713100000000	0.00000000000000	0.10324700000000	-17.81956500000000	64.15554200000000	8.68255500000000	0.36989000000000	0.00000000000000	-0.06848700000000	0.00000000000000	23.69479000000000	0.00000000000000	0.00000000000000	4.59442900000000	0.00000000000000	
21.78824600000000	-41.45495900000000	765.26341500000001	49.38387800000000	0.16622600000000	0.00000000000000	0.10322900000000	-18.23182400000000	70.18904000000001	9.04596300000000	0.37020600000000	0.00000000000000	-0.06889700000000	0.00000000000000	23.56961000000000	0.00000000000000	0.00000000000000	4.82697000000000	0.00000000000000	
21.78991100000000	-41.94821700000000	762.20089299999995	49.02474600000000	0.16532200000000	0.00000000000000	0.10320800000000	-18.37307600000000	76.03754300000000	9.29986600000000	0.37072300000000	0.00000000000000	-0.06926800000000	0.00000000000000	23.44403300000000	0.00000000000000	0.00000000000000	5.01117100000000	0.00000000000000	
21.79157800000000	-42.45588200000000	759.04598899999996	48.64604200000000	0.16442100000000	0.00000000000000	0.10318300000000	-18.26057000000000	81.71024800000001	9.44905300000000	0.37142400000000	0.00000000000000	-0.06960400000000	0.00000000000000	23.31822300000000	0.00000000000000	0.00000000000000	5.14886900000000	0.00000000000000	
21.79324900000000	-42.97761900000000	755.79709700000001	48.24788500000000	0.16352700000000	0.00000000000000	0.10315400000000	-17.91949200000000	87.23431800000000	9.50181800000000	0.37229600000000	0.00000000000000	-0.06990700000000	0.00000000000000	23.19233100000000	0.00000000000000	0.00000000000000	5.24347200000000	0.00000000000000	
